<svg height="437.92039pt" viewBox="0 0 437.92039 437.92039" width="437.92039pt" xmlns="http://www.w3.org/2000/svg"><path d="m437.921875 218.960938h-70.0625c.050781-39.5-15.644531-77.394532-43.609375-105.289063l.101562-.101563.667969-.671874 48.769531-48.769532c41.125 41.023438 64.203126 96.746094 64.132813 154.832032zm0 0" fill="#fedb41"/><path d="m367.960938 218.960938h69.960937c.074219 57.851562-22.824219 113.371093-63.660156 154.347656l-49.542969-49.539063c27.679688-27.855469 43.191406-65.542969 43.140625-104.808593zm0 0" fill="#f4b844"/><path d="m374.261719 373.308594c-41.054688 41.421875-96.980469 64.691406-155.300781 64.613281v-70.070313c39.730468.046876 77.824218-15.828124 105.757812-44.082031zm0 0" fill="#fedb41"/><path d="m373.789062 64.128906-48.769531 48.769532-.667969.671874-.101562.101563c-27.898438-27.964844-65.789062-43.660156-105.289062-43.613281v-70.058594c58.085937-.0703125 113.804687 23.007812 154.828124 64.128906zm0 0" fill="#f4b844"/><path d="m113.679688 324.238281c-50.230469-50.226562-57.984376-128.945312-18.519532-188.011719 39.464844-59.066406 115.160156-82.027343 180.789063-54.839843 65.628906 27.183593 102.917969 96.945312 89.054687 166.617187-13.859375 69.671875-75.007812 119.847656-146.042968 119.847656-39.5.050782-77.386719-15.644531-105.28125-43.613281zm184.910156-100.628906c-.023438-20.71875-16.8125-37.507813-37.53125-37.527344-1.867188-.003906-3.730469.132813-5.578125.40625 3.574219-15.089843-2.503907-30.824219-15.296875-39.597656-12.789063-8.769531-29.65625-8.769531-42.449219 0-12.789063 8.773437-18.867187 24.507813-15.292969 39.597656-1.847656-.273437-3.714844-.410156-5.582031-.40625-16.941406-.015625-31.792969 11.320313-36.242187 27.667969-4.453126 16.347656 2.601562 33.652344 17.214843 42.226562 14.609375 8.578126 33.15625 6.300782 45.257813-5.554687.949218.722656 1.796875 1.570313 2.519531 2.519531 2.832031 3.730469 4.152344 9.238282 4.152344 17.347656 0 15-8.371094 27.210938-23.382813 27.210938-.109375.019531-.191406.117188-.191406.230469s.082031.210937.191406.230469h65.160156c.113282-.019532.191407-.117188.191407-.230469 0-.109375-.082031-.199219-.191407-.210938-15.007812 0-23.378906-12.21875-23.378906-27.21875 0-8.109375 1.320313-13.628906 4.148438-17.351562.722656-.949219 1.570312-1.796875 2.523437-2.519531 10.789063 10.566406 26.867188 13.632812 40.789063 7.777343 13.921875-5.859375 22.976562-19.492187 22.96875-34.597656zm0 0" fill="#00efd1"/><path d="m261.058594 186.082031c16.941406-.011719 31.789062 11.328125 36.238281 27.671875 4.445313 16.34375-2.605469 33.644532-17.210937 42.21875-14.609376 8.578125-33.152344 6.308594-45.253907-5.542968-.953125.722656-1.800781 1.570312-2.523437 2.519531-2.828125 3.722656-4.148438 9.242187-4.148438 17.351562 0 15 8.371094 27.21875 23.378906 27.21875.109376.011719.191407.101563.191407.210938 0 .113281-.078125.210937-.191407.230469h-65.160156c-.109375-.019532-.191406-.117188-.191406-.230469s.082031-.210938.191406-.230469c15.011719 0 23.382813-12.210938 23.382813-27.210938 0-8.109374-1.320313-13.617187-4.152344-17.347656-.722656-.949218-1.570313-1.796875-2.519531-2.519531-12.101563 11.839844-30.636719 14.109375-45.238282 5.535156-14.601562-8.574219-21.652343-25.867187-17.207031-42.207031 4.445313-16.335938 19.28125-27.675781 36.214844-27.667969 1.867187-.003906 3.734375.132813 5.582031.40625-3.574218-15.089843 2.503906-30.824219 15.292969-39.597656 12.792969-8.769531 29.660156-8.769531 42.449219 0 12.792968 8.773437 18.871094 24.507813 15.296875 39.597656 1.847656-.273437 3.710937-.410156 5.578125-.40625zm0 0" fill="#00acea"/><path d="m218.960938 367.960938v69.960937c-58.085938.070313-113.808594-23.007813-154.832032-64.132813l49.550782-49.550781c27.894531 27.96875 65.78125 43.664063 105.28125 43.613281zm0 0" fill="#f4b844"/><path d="m218.960938 69.960938v.097656c-39.269532-.046875-76.957032 15.464844-104.8125 43.140625l-.296876-.300781-49.242187-49.238282c40.980469-40.839844 96.496094-63.7343748 154.351563-63.660156zm0 0" fill="#fedb41"/><path d="m114.148438 113.199219c-28.25 27.9375-44.125 66.03125-44.078126 105.761719h-70.070312c-.078125-58.320313 23.1875-114.246094 64.609375-155.300782l49.242187 49.238282zm0 0" fill="#f4b844"/><path d="m113.679688 324.238281-49.550782 49.550781c-41.121094-41.023437-64.1992185-96.742187-64.128906-154.828124h70.070312c-.050781 39.496093 15.644532 77.386718 43.609376 105.277343zm0 0" fill="#fedb41"/></svg>