<?xml version="1.0" standalone="no"?>
<!DOCTYPE svg PUBLIC "-//W3C//DTD SVG 20010904//EN"
 "http://www.w3.org/TR/2001/REC-SVG-20010904/DTD/svg10.dtd">
<svg version="1.0" xmlns="http://www.w3.org/2000/svg"
 width="700.000000pt" height="700.000000pt" viewBox="0 0 700.000000 700.000000"
 preserveAspectRatio="xMidYMid meet">
<metadata>
Created by potrace 1.11, written by Peter Selinger 2001-2013
</metadata>
<g transform="translate(0.000000,700.000000) scale(0.100000,-0.100000)"
fill="#000000" stroke="none">
<path d="M3298 6996 c-1 -2 -41 -6 -88 -9 -403 -28 -850 -151 -1240 -340 -925
-449 -1620 -1304 -1866 -2297 -16 -63 -66 -325 -70 -365 -3 -27 -7 -61 -10
-75 -25 -148 -25 -719 1 -820 2 -8 6 -42 10 -75 3 -33 8 -67 10 -75 3 -8 7
-31 9 -50 3 -20 19 -97 36 -172 77 -340 207 -670 375 -958 85 -145 89 -153 98
-164 4 -6 37 -54 73 -106 63 -90 205 -271 249 -316 221 -231 275 -281 460
-432 26 -21 225 -163 250 -179 335 -207 653 -350 965 -434 25 -7 50 -14 55
-15 6 -2 19 -5 30 -8 337 -80 521 -101 865 -101 184 0 320 7 405 20 17 2 48 7
70 9 63 8 214 35 285 52 36 9 72 17 80 19 122 27 389 118 549 187 121 53 308
148 353 179 14 11 29 19 33 19 13 0 273 177 365 249 287 223 584 544 770 831
64 98 98 156 148 247 55 102 142 278 142 288 0 2 11 28 24 57 93 207 203 615
235 879 6 46 13 100 16 119 10 60 13 531 4 615 -17 173 -24 233 -33 280 -2 11
-11 61 -21 110 -20 107 -46 214 -75 310 -12 39 -24 81 -27 95 -9 39 -96 265
-141 365 -37 84 -80 169 -155 305 -81 147 -315 474 -415 579 -255 268 -376
376 -591 530 -268 191 -616 371 -896 461 -33 11 -80 26 -105 34 -101 33 -314
85 -407 100 -33 5 -116 19 -123 21 -3 1 -41 5 -85 10 -44 4 -89 10 -100 12
-26 4 -512 13 -517 9z m1642 -5390 c0 -2 -8 -10 -17 -17 -16 -13 -17 -12 -4 4
13 16 21 21 21 13z"/>
</g>
</svg>
